<?xml version="1.0" encoding="UTF-8"?><svg xmlns="http://www.w3.org/2000/svg" xmlns:xlink="http://www.w3.org/1999/xlink" height="378pt" style="width:810px;height:378px;" version="1.1" viewBox="0 0 810 378" width="810pt">
    <defs>
        <filter height="300%" id="f1" width="300%" x="-1" y="-1">
            <feGaussianBlur result="blurOut" stdDeviation="2.0"/>
            <feColorMatrix in="blurOut" result="blurOut2" type="matrix" values="0 0 0 0 0 0 0 0 0 0 0 0 0 0 0 0 0 0 .4 0"/>
            <feOffset dx="4.0" dy="4.0" in="blurOut2" result="blurOut3"/>
            <feBlend in="SourceGraphic" in2="blurOut3" mode="normal"/>
        </filter>
    </defs>
    <g>
        <polygon fill="#FFFFFF" filter="url(#f1)" points="22,62,81,62,88,85.6094,803,85.6094,803,371,22,371,22,62" style="stroke: #000000; stroke-width: 2.0;"/>
        <line style="stroke: #000000; stroke-width: 2.0;" x1="22" x2="88" y1="85.6094" y2="85.6094"/>
        <text fill="#000000" font-family="sans-serif" font-size="14" font-weight="bold" lengthAdjust="spacingAndGlyphs" textLength="53" x="25" y="79.5332">entities</text>
        <rect fill="#FEFECE" filter="url(#f1)" height="214.0313" style="stroke: #A80036; stroke-width: 1.5;" width="106" x="64" y="121"/>
        <ellipse cx="86.2" cy="137" fill="#ADD1B2" rx="11" ry="11" style="stroke: #A80036; stroke-width: 1.0;"/>
        <path d="M88.9656,132.875 Q89.1219,132.6563 89.3094,132.5469 Q89.4969,132.4375 89.7156,132.4375 Q90.0906,132.4375 90.325,132.6953 Q90.5594,132.9531 90.5594,133.5625 L90.5594,135.0156 Q90.5594,135.625 90.325,135.8906 Q90.0906,136.1563 89.7156,136.1563 Q89.3719,136.1563 89.1688,135.9531 Q88.9656,135.7656 88.8563,135.25 Q88.8094,134.8906 88.6219,134.7031 Q88.2938,134.3281 87.6844,134.1094 Q87.075,133.8906 86.45,133.8906 Q85.6844,133.8906 85.0516,134.2188 Q84.4188,134.5469 83.9266,135.2969 Q83.4344,136.0469 83.4344,137.0781 L83.4344,138.1719 Q83.4344,139.4063 84.325,140.2266 Q85.2156,141.0469 86.8094,141.0469 Q87.7469,141.0469 88.4031,140.7969 Q88.7938,140.6406 89.2156,140.2031 Q89.4813,139.9375 89.6297,139.8594 Q89.7781,139.7813 89.9813,139.7813 Q90.3094,139.7813 90.5672,140.0391 Q90.825,140.2969 90.825,140.6406 Q90.825,140.9844 90.4813,141.3906 Q89.9813,141.9688 89.1844,142.2969 Q88.1063,142.75 86.8094,142.75 Q85.2938,142.75 84.0906,142.125 Q83.1063,141.625 82.4188,140.5547 Q81.7313,139.4844 81.7313,138.2031 L81.7313,137.0469 Q81.7313,135.7188 82.3484,134.5703 Q82.9656,133.4219 84.0594,132.8047 Q85.1531,132.1875 86.3875,132.1875 Q87.1219,132.1875 87.7703,132.3516 Q88.4188,132.5156 88.9656,132.875 Z "/>
        <text fill="#000000" font-family="sans-serif" font-size="12" lengthAdjust="spacingAndGlyphs" textLength="58" x="101.8" y="141.9102">Anagrafica</text>
        <line style="stroke: #A80036; stroke-width: 1.5;" x1="65" x2="169" y1="153" y2="153"/>
        <text fill="#000000" font-family="sans-serif" font-size="11" lengthAdjust="spacingAndGlyphs" textLength="41" x="70" y="168.4189">Cellulare</text>
        <text fill="#000000" font-family="sans-serif" font-size="11" lengthAdjust="spacingAndGlyphs" textLength="70" x="70" y="182.2549">Codice Fiscale</text>
        <text fill="#000000" font-family="sans-serif" font-size="11" lengthAdjust="spacingAndGlyphs" textLength="45" x="70" y="196.0908">Cognome</text>
        <text fill="#000000" font-family="sans-serif" font-size="11" lengthAdjust="spacingAndGlyphs" textLength="72" x="70" y="209.9268">Data di Nascita</text>
        <text fill="#000000" font-family="sans-serif" font-size="11" lengthAdjust="spacingAndGlyphs" textLength="24" x="70" y="223.7627">Email</text>
        <text fill="#000000" font-family="sans-serif" font-size="11" lengthAdjust="spacingAndGlyphs" textLength="40" x="70" y="237.5986">Indirizzo</text>
        <text fill="#000000" font-family="sans-serif" font-size="11" lengthAdjust="spacingAndGlyphs" textLength="52" x="70" y="251.4346">Nazionalita</text>
        <text fill="#000000" font-family="sans-serif" font-size="11" lengthAdjust="spacingAndGlyphs" textLength="27" x="70" y="265.2705">Nome</text>
        <text fill="#000000" font-family="sans-serif" font-size="11" lengthAdjust="spacingAndGlyphs" textLength="94" x="70" y="279.1064">Numero Documento</text>
        <text fill="#000000" font-family="sans-serif" font-size="11" lengthAdjust="spacingAndGlyphs" textLength="42" x="70" y="292.9424">Telefono</text>
        <text fill="#000000" font-family="sans-serif" font-size="11" lengthAdjust="spacingAndGlyphs" textLength="80" x="70" y="306.7783">Tipo di Mansione</text>
        <text fill="#000000" font-family="sans-serif" font-size="11" lengthAdjust="spacingAndGlyphs" textLength="88" x="70" y="320.6143">Tipo di Documento</text>
        <line style="stroke: #A80036; stroke-width: 1.5;" x1="65" x2="169" y1="327.0313" y2="327.0313"/>
        <rect fill="#FEFECE" filter="url(#f1)" height="117.1797" style="stroke: #A80036; stroke-width: 1.5;" width="93" x="670" y="169"/>
        <ellipse cx="685" cy="185" fill="#ADD1B2" rx="11" ry="11" style="stroke: #A80036; stroke-width: 1.0;"/>
        <path d="M687.7656,180.875 Q687.9219,180.6563 688.1094,180.5469 Q688.2969,180.4375 688.5156,180.4375 Q688.8906,180.4375 689.125,180.6953 Q689.3594,180.9531 689.3594,181.5625 L689.3594,183.0156 Q689.3594,183.625 689.125,183.8906 Q688.8906,184.1563 688.5156,184.1563 Q688.1719,184.1563 687.9688,183.9531 Q687.7656,183.7656 687.6563,183.25 Q687.6094,182.8906 687.4219,182.7031 Q687.0938,182.3281 686.4844,182.1094 Q685.875,181.8906 685.25,181.8906 Q684.4844,181.8906 683.8516,182.2188 Q683.2188,182.5469 682.7266,183.2969 Q682.2344,184.0469 682.2344,185.0781 L682.2344,186.1719 Q682.2344,187.4063 683.125,188.2266 Q684.0156,189.0469 685.6094,189.0469 Q686.5469,189.0469 687.2031,188.7969 Q687.5938,188.6406 688.0156,188.2031 Q688.2813,187.9375 688.4297,187.8594 Q688.5781,187.7813 688.7813,187.7813 Q689.1094,187.7813 689.3672,188.0391 Q689.625,188.2969 689.625,188.6406 Q689.625,188.9844 689.2813,189.3906 Q688.7813,189.9688 687.9844,190.2969 Q686.9063,190.75 685.6094,190.75 Q684.0938,190.75 682.8906,190.125 Q681.9063,189.625 681.2188,188.5547 Q680.5313,187.4844 680.5313,186.2031 L680.5313,185.0469 Q680.5313,183.7188 681.1484,182.5703 Q681.7656,181.4219 682.8594,180.8047 Q683.9531,180.1875 685.1875,180.1875 Q685.9219,180.1875 686.5703,180.3516 Q687.2188,180.5156 687.7656,180.875 Z "/>
        <text fill="#000000" font-family="sans-serif" font-size="12" lengthAdjust="spacingAndGlyphs" textLength="61" x="699" y="189.9102">Nazionalita</text>
        <line style="stroke: #A80036; stroke-width: 1.5;" x1="671" x2="762" y1="201" y2="201"/>
        <text fill="#000000" font-family="sans-serif" font-size="11" lengthAdjust="spacingAndGlyphs" textLength="70" x="676" y="216.4189">Abbreviazione</text>
        <text fill="#000000" font-family="sans-serif" font-size="11" lengthAdjust="spacingAndGlyphs" textLength="32" x="676" y="230.2549">Valore</text>
        <line style="stroke: #A80036; stroke-width: 1.5;" x1="671" x2="762" y1="236.6719" y2="236.6719"/>
        <ellipse cx="681" cy="249.0898" fill="#84BE84" rx="3" ry="3" style="stroke: #038048; stroke-width: 1.0;"/>
        <text fill="#000000" font-family="sans-serif" font-size="11" lengthAdjust="spacingAndGlyphs" textLength="48" x="690" y="252.0908">aggiungi()</text>
        <ellipse cx="681" cy="262.9258" fill="#84BE84" rx="3" ry="3" style="stroke: #038048; stroke-width: 1.0;"/>
        <text fill="#000000" font-family="sans-serif" font-size="11" lengthAdjust="spacingAndGlyphs" textLength="42" x="690" y="265.9268">rimuovi()</text>
        <ellipse cx="681" cy="276.7617" fill="#84BE84" rx="3" ry="3" style="stroke: #038048; stroke-width: 1.0;"/>
        <text fill="#000000" font-family="sans-serif" font-size="11" lengthAdjust="spacingAndGlyphs" textLength="48" x="690" y="279.7627">modifica()</text>
        <rect fill="#FEFECE" filter="url(#f1)" height="144.8516" style="stroke: #A80036; stroke-width: 1.5;" width="119" x="254" y="156"/>
        <ellipse cx="291.5" cy="172" fill="#ADD1B2" rx="11" ry="11" style="stroke: #A80036; stroke-width: 1.0;"/>
        <path d="M294.2656,167.875 Q294.4219,167.6563 294.6094,167.5469 Q294.7969,167.4375 295.0156,167.4375 Q295.3906,167.4375 295.625,167.6953 Q295.8594,167.9531 295.8594,168.5625 L295.8594,170.0156 Q295.8594,170.625 295.625,170.8906 Q295.3906,171.1563 295.0156,171.1563 Q294.6719,171.1563 294.4688,170.9531 Q294.2656,170.7656 294.1563,170.25 Q294.1094,169.8906 293.9219,169.7031 Q293.5938,169.3281 292.9844,169.1094 Q292.375,168.8906 291.75,168.8906 Q290.9844,168.8906 290.3516,169.2188 Q289.7188,169.5469 289.2266,170.2969 Q288.7344,171.0469 288.7344,172.0781 L288.7344,173.1719 Q288.7344,174.4063 289.625,175.2266 Q290.5156,176.0469 292.1094,176.0469 Q293.0469,176.0469 293.7031,175.7969 Q294.0938,175.6406 294.5156,175.2031 Q294.7813,174.9375 294.9297,174.8594 Q295.0781,174.7813 295.2813,174.7813 Q295.6094,174.7813 295.8672,175.0391 Q296.125,175.2969 296.125,175.6406 Q296.125,175.9844 295.7813,176.3906 Q295.2813,176.9688 294.4844,177.2969 Q293.4063,177.75 292.1094,177.75 Q290.5938,177.75 289.3906,177.125 Q288.4063,176.625 287.7188,175.5547 Q287.0313,174.4844 287.0313,173.2031 L287.0313,172.0469 Q287.0313,170.7188 287.6484,169.5703 Q288.2656,168.4219 289.3594,167.8047 Q290.4531,167.1875 291.6875,167.1875 Q292.4219,167.1875 293.0703,167.3516 Q293.7188,167.5156 294.2656,167.875 Z "/>
        <text fill="#000000" font-family="sans-serif" font-size="12" lengthAdjust="spacingAndGlyphs" textLength="37" x="310.5" y="176.9102">Stanza</text>
        <line style="stroke: #A80036; stroke-width: 1.5;" x1="255" x2="372" y1="188" y2="188"/>
        <text fill="#000000" font-family="sans-serif" font-size="11" lengthAdjust="spacingAndGlyphs" textLength="107" x="260" y="203.4189">Struttura di riferimento</text>
        <text fill="#000000" font-family="sans-serif" font-size="11" lengthAdjust="spacingAndGlyphs" textLength="37" x="260" y="217.2549">Numero</text>
        <text fill="#000000" font-family="sans-serif" font-size="11" lengthAdjust="spacingAndGlyphs" textLength="67" x="260" y="231.0908">Tipo di stanza</text>
        <line style="stroke: #A80036; stroke-width: 1.5;" x1="255" x2="372" y1="237.5078" y2="237.5078"/>
        <ellipse cx="265" cy="249.9258" fill="#84BE84" rx="3" ry="3" style="stroke: #038048; stroke-width: 1.0;"/>
        <text fill="#000000" font-family="sans-serif" font-size="11" lengthAdjust="spacingAndGlyphs" textLength="48" x="274" y="252.9268">aggiungi()</text>
        <ellipse cx="265" cy="263.7617" fill="#84BE84" rx="3" ry="3" style="stroke: #038048; stroke-width: 1.0;"/>
        <text fill="#000000" font-family="sans-serif" font-size="11" lengthAdjust="spacingAndGlyphs" textLength="42" x="274" y="266.7627">rimuovi()</text>
        <ellipse cx="265" cy="277.5977" fill="#84BE84" rx="3" ry="3" style="stroke: #038048; stroke-width: 1.0;"/>
        <text fill="#000000" font-family="sans-serif" font-size="11" lengthAdjust="spacingAndGlyphs" textLength="54" x="274" y="280.5986">moodifica()</text>
        <ellipse cx="265" cy="291.4336" fill="#84BE84" rx="3" ry="3" style="stroke: #038048; stroke-width: 1.0;"/>
        <text fill="#000000" font-family="sans-serif" font-size="11" lengthAdjust="spacingAndGlyphs" textLength="93" x="274" y="294.4346">modifica Struttura()</text>
        <rect fill="#FEFECE" filter="url(#f1)" height="144.8516" style="stroke: #A80036; stroke-width: 1.5;" width="129" x="457" y="156"/>
        <ellipse cx="494.95" cy="172" fill="#ADD1B2" rx="11" ry="11" style="stroke: #A80036; stroke-width: 1.0;"/>
        <path d="M497.7156,167.875 Q497.8719,167.6563 498.0594,167.5469 Q498.2469,167.4375 498.4656,167.4375 Q498.8406,167.4375 499.075,167.6953 Q499.3094,167.9531 499.3094,168.5625 L499.3094,170.0156 Q499.3094,170.625 499.075,170.8906 Q498.8406,171.1563 498.4656,171.1563 Q498.1219,171.1563 497.9188,170.9531 Q497.7156,170.7656 497.6063,170.25 Q497.5594,169.8906 497.3719,169.7031 Q497.0438,169.3281 496.4344,169.1094 Q495.825,168.8906 495.2,168.8906 Q494.4344,168.8906 493.8016,169.2188 Q493.1688,169.5469 492.6766,170.2969 Q492.1844,171.0469 492.1844,172.0781 L492.1844,173.1719 Q492.1844,174.4063 493.075,175.2266 Q493.9656,176.0469 495.5594,176.0469 Q496.4969,176.0469 497.1531,175.7969 Q497.5438,175.6406 497.9656,175.2031 Q498.2313,174.9375 498.3797,174.8594 Q498.5281,174.7813 498.7313,174.7813 Q499.0594,174.7813 499.3172,175.0391 Q499.575,175.2969 499.575,175.6406 Q499.575,175.9844 499.2313,176.3906 Q498.7313,176.9688 497.9344,177.2969 Q496.8563,177.75 495.5594,177.75 Q494.0438,177.75 492.8406,177.125 Q491.8563,176.625 491.1688,175.5547 Q490.4813,174.4844 490.4813,173.2031 L490.4813,172.0469 Q490.4813,170.7188 491.0984,169.5703 Q491.7156,168.4219 492.8094,167.8047 Q493.9031,167.1875 495.1375,167.1875 Q495.8719,167.1875 496.5203,167.3516 Q497.1688,167.5156 497.7156,167.875 Z "/>
        <text fill="#000000" font-family="sans-serif" font-size="12" lengthAdjust="spacingAndGlyphs" textLength="46" x="514.05" y="176.9102">Struttura</text>
        <line style="stroke: #A80036; stroke-width: 1.5;" x1="458" x2="585" y1="188" y2="188"/>
        <text fill="#000000" font-family="sans-serif" font-size="11" lengthAdjust="spacingAndGlyphs" textLength="112" x="463" y="203.4189">Anagrafica Proprietario</text>
        <text fill="#000000" font-family="sans-serif" font-size="11" lengthAdjust="spacingAndGlyphs" textLength="57" x="463" y="217.2549">Descrizione</text>
        <text fill="#000000" font-family="sans-serif" font-size="11" lengthAdjust="spacingAndGlyphs" textLength="40" x="463" y="231.0908">Indirizzo</text>
        <line style="stroke: #A80036; stroke-width: 1.5;" x1="458" x2="585" y1="237.5078" y2="237.5078"/>
        <ellipse cx="468" cy="249.9258" fill="#84BE84" rx="3" ry="3" style="stroke: #038048; stroke-width: 1.0;"/>
        <text fill="#000000" font-family="sans-serif" font-size="11" lengthAdjust="spacingAndGlyphs" textLength="48" x="477" y="252.9268">aggiungi()</text>
        <ellipse cx="468" cy="263.7617" fill="#84BE84" rx="3" ry="3" style="stroke: #038048; stroke-width: 1.0;"/>
        <text fill="#000000" font-family="sans-serif" font-size="11" lengthAdjust="spacingAndGlyphs" textLength="48" x="477" y="266.7627">modifica()</text>
        <ellipse cx="468" cy="277.5977" fill="#84BE84" rx="3" ry="3" style="stroke: #038048; stroke-width: 1.0;"/>
        <text fill="#000000" font-family="sans-serif" font-size="11" lengthAdjust="spacingAndGlyphs" textLength="42" x="477" y="280.5986">rimuovi()</text>
        <ellipse cx="468" cy="291.4336" fill="#84BE84" rx="3" ry="3" style="stroke: #038048; stroke-width: 1.0;"/>
        <text fill="#000000" font-family="sans-serif" font-size="11" lengthAdjust="spacingAndGlyphs" textLength="103" x="477" y="294.4346">associa Anagrafica()</text>
        <path d="M149.812,120.88 C167.132,83.271 192.675,45.151 229.5,24 C266.209,2.915 573.791,2.915 610.5,24 C662.986,54.147 690.649,120.058 704.487,168.844 " fill="none" style="stroke: #A80036; stroke-width: 1.0;"/>
        <text fill="#000000" font-family="sans-serif" font-size="13" lengthAdjust="spacingAndGlyphs" textLength="7" x="156.8753" y="110.1284">1</text>
        <text fill="#000000" font-family="sans-serif" font-size="13" lengthAdjust="spacingAndGlyphs" textLength="7" x="700.9829" y="158.2286">1</text>
        <path d="M170,228 C195.837,228 227.169,228 253.911,228 " fill="none" style="stroke: #A80036; stroke-width: 1.0;"/>
        <text fill="#000000" font-family="sans-serif" font-size="13" lengthAdjust="spacingAndGlyphs" textLength="7" x="178.045" y="237.4094">1</text>
        <text fill="#000000" font-family="sans-serif" font-size="13" lengthAdjust="spacingAndGlyphs" textLength="7" x="239.0112" y="228.6369">1</text>
        <path d="M373.205,228 C399.261,228 430.067,228 456.793,228 " fill="none" style="stroke: #A80036; stroke-width: 1.0;"/>
        <text fill="#000000" font-family="sans-serif" font-size="13" lengthAdjust="spacingAndGlyphs" textLength="7" x="380.9347" y="237.3569">1</text>
        <text fill="#000000" font-family="sans-serif" font-size="13" lengthAdjust="spacingAndGlyphs" textLength="7" x="441.9893" y="228.6525">1</text>
    </g>
</svg>
